<?xml version="1.0" encoding="iso-8859-1"?>
<!-- Generator: Adobe Illustrator 21.0.0, SVG Export Plug-In . SVG Version: 6.00 Build 0)  -->
<svg xmlns="http://www.w3.org/2000/svg" xmlns:xlink="http://www.w3.org/1999/xlink" version="1.1" id="Capa_1" x="0px" y="0px" viewBox="0 0 512 512" style="enable-background:new 0 0 512 512;" xml:space="preserve" width="512" height="512">
<g>
	<path style="fill:#FFFF99;" d="M482,447.733H30c-16.569,0-30-13.431-30-30V94.267c0-16.569,13.431-30,30-30h452   c16.569,0,30,13.431,30,30v323.467C512,434.302,498.569,447.733,482,447.733z"/>
	<path style="fill:#FFFF00;" d="M482,447.733c16.569,0,30-13.431,30-30V94.267c0-16.569-13.431-30-30-30H256v383.467H482z"/>
	<path style="fill:#0064FF;" d="M45,417.733h422c8.284,0,15-6.716,15-15V109.267c0-8.284-6.716-15-15-15H45c-8.284,0-15,6.716-15,15   v293.467C30,411.018,36.716,417.733,45,417.733z"/>
	<path style="fill:#003280;" d="M482,109.267c0-8.284-6.716-15-15-15H256v323.467h211c8.284,0,15-6.716,15-15V109.267z"/>
	<path style="fill:#FF99FF;" d="M127.467,238.866h-48.2c-8.284,0-15-6.716-15-15v-80.333c0-8.284,6.716-15,15-15h48.2   c8.284,0,15,6.716,15,15s-6.716,15-15,15h-33.2v50.333h18.2v-17.133c0-8.284,6.716-15,15-15s15,6.716,15,15v32.133   C142.467,232.15,135.751,238.866,127.467,238.866z"/>
	<path style="fill:#FF99FF;" d="M223.866,128.533h-48.199c-8.284,0-15,6.716-15,15v80.333c0,8.284,6.716,15,15,15s15-6.716,15-15   v-17.133h18.199v17.133c0,8.284,6.716,15,15,15s15-6.716,15-15v-80.333C238.866,135.249,232.15,128.533,223.866,128.533z    M190.667,176.733v-18.2h18.199v18.2H190.667z"/>
	<path style="fill:#FF00FF;" d="M351.334,128.533H271c-8.284,0-15,6.716-15,15v80.333c0,8.284,6.716,15,15,15s15-6.716,15-15   v-65.333h10.167v65.333c0,8.284,6.716,15,15,15s15-6.716,15-15v-65.333h10.167v65.333c0,8.284,6.716,15,15,15s15-6.716,15-15   v-80.333C366.334,135.249,359.618,128.533,351.334,128.533z"/>
	<path style="fill:#FF00FF;" d="M304.2,343.3c8.284,0,15-6.716,15-15s-6.716-15-15-15H286v-10.166h18.2c8.284,0,15-6.716,15-15   s-6.716-15-15-15H271c-8.284,0-15,6.716-15,15v80.333c0,8.284,6.716,15,15,15h33.2c8.284,0,15-6.716,15-15s-6.716-15-15-15H286   V343.3H304.2z"/>
	<path style="fill:#FF00FF;" d="M432.733,198.699c8.284,0,15-6.716,15-15s-6.716-15-15-15h-18.2v-10.166h18.2   c8.284,0,15-6.716,15-15s-6.716-15-15-15h-33.2c-8.284,0-15,6.716-15,15v80.333c0,8.284,6.716,15,15,15h33.2   c8.284,0,15-6.716,15-15s-6.716-15-15-15h-18.2v-10.167H432.733z"/>
	<path style="fill:#FF99FF;" d="M127.467,383.467h-48.2c-8.284,0-15-6.716-15-15v-80.333c0-8.284,6.716-15,15-15h48.2   c8.284,0,15,6.716,15,15v80.333C142.467,376.751,135.751,383.467,127.467,383.467z M94.267,353.467h18.2v-50.333h-18.2V353.467z"/>
	<path style="fill:#FF99FF;" d="M199.767,383.467c-4.722,0-9.167-2.223-12-6l-24.1-32.134c-1.947-2.597-3-5.755-3-9v-48.199   c0-8.284,6.716-15,15-15s15,6.716,15,15v43.199l9.1,12.134l9.1-12.134v-43.199c0-8.284,6.716-15,15-15s15,6.716,15,15v48.199   c0,3.245-1.053,6.403-3,9l-24.1,32.134C208.934,381.244,204.488,383.467,199.767,383.467z"/>
	<path style="fill:#FF00FF;" d="M443.34,357.86l-13.054-13.054c2.13-1.423,4.134-3.065,5.983-4.917   c7.393-7.38,11.465-17.201,11.465-27.656s-4.072-20.276-11.445-27.637c-7.38-7.392-17.201-11.463-27.654-11.463H352.4   c-8.284,0-15,6.716-15,15v48.199v32.134c0,8.284,6.716,15,15,15s15-6.716,15-15v-17.134h26.986l27.74,27.74   c2.929,2.929,6.768,4.394,10.606,4.394s7.678-1.465,10.606-4.394C449.198,373.216,449.198,363.718,443.34,357.86z M367.4,303.134   h41.233c2.431,0,4.711,0.944,6.441,2.678c1.714,1.71,2.658,3.991,2.658,6.422s-0.944,4.712-2.678,6.441   c-1.711,1.714-3.991,2.658-6.422,2.658H367.4V303.134z"/>
</g>















</svg>
